<?xml version="1.0" encoding="utf-8"?>
<!-- Generator: Adobe Illustrator 25.4.1, SVG Export Plug-In . SVG Version: 6.00 Build 0)  -->
<svg version="1.1" id="Layer_1" xmlns="http://www.w3.org/2000/svg" xmlns:xlink="http://www.w3.org/1999/xlink" x="0px" y="0px"
	 viewBox="0 0 24 24" style="enable-background:new 0 0 24 24;" xml:space="preserve">
<style type="text/css">
	.st0{fill:#2B2B2B;}
</style>
<path class="st0" d="M8,5.8C7.6,5.8,7.2,5.4,7.2,5V2c0-0.4,0.3-0.8,0.8-0.8S8.8,1.6,8.8,2v3C8.8,5.4,8.4,5.8,8,5.8z"/>
<path class="st0" d="M16,5.8c-0.4,0-0.8-0.3-0.8-0.8V2c0-0.4,0.3-0.8,0.8-0.8s0.8,0.3,0.8,0.8v3C16.8,5.4,16.4,5.8,16,5.8z"/>
<path class="st0" d="M15,22.8H9c-5.6,0-6.8-2.6-6.8-6.9V9.6C2.2,4.9,3.8,3,8,2.8h8c0,0,0,0,0,0c4.1,0.2,5.7,2.2,5.7,6.9v6.2
	C21.8,20.1,20.6,22.8,15,22.8z M8,4.2c-2.8,0.2-4.2,1-4.2,5.4v6.2c0,3.8,0.7,5.4,5.2,5.4h6c4.5,0,5.2-1.6,5.2-5.4V9.6
	c0-4.3-1.4-5.2-4.3-5.4H8z"/>
<path class="st0" d="M20.8,18.4H3.2c-0.4,0-0.8-0.3-0.8-0.8s0.3-0.8,0.8-0.8h17.5c0.4,0,0.8,0.3,0.8,0.8S21.2,18.4,20.8,18.4z"/>
<path class="st0" d="M12,8.2c-1.2,0-2.3,0.7-2.3,2c0,0.6,0.3,1.1,0.7,1.4c-0.6,0.4-1,0.9-1,1.6c0,1.2,0.9,2,2.5,2
	c1.5,0,2.5-0.8,2.5-2c0-0.7-0.4-1.3-1-1.6c0.4-0.3,0.7-0.8,0.7-1.4C14.3,8.9,13.2,8.2,12,8.2z M12,11.1c-0.5,0-0.9-0.3-0.9-0.8
	c0-0.5,0.4-0.8,0.9-0.8s0.9,0.3,0.9,0.8C12.9,10.8,12.5,11.1,12,11.1z M12,14c-0.7,0-1.1-0.3-1.1-0.9c0-0.6,0.5-0.9,1.1-0.9
	s1.1,0.3,1.1,0.9C13.1,13.7,12.7,14,12,14z"/>
</svg>
