<?xml version="1.0" encoding="utf-8"?>
<!-- Generator: Adobe Illustrator 25.2.3, SVG Export Plug-In . SVG Version: 6.00 Build 0)  -->
<svg version="1.1" id="Layer_1" xmlns="http://www.w3.org/2000/svg" xmlns:xlink="http://www.w3.org/1999/xlink" x="0px" y="0px"
	 viewBox="0 0 279.9 273.9" style="enable-background:new 0 0 279.9 273.9;" xml:space="preserve">
<style type="text/css">
	.st0{fill-rule:evenodd;clip-rule:evenodd;fill:#EAEAEA;}
	.st1{fill-rule:evenodd;clip-rule:evenodd;fill:#E64A19;}
	.st2{fill-rule:evenodd;clip-rule:evenodd;fill:#263238;}
	.st3{fill:#FFFFFE;}
	.st4{fill:#C5C5C5;}
	.st5{fill:#E64A19;}
	.st6{fill:#FFFFFF;}
</style>
<path class="st0" d="M279.9,66.6H0v188.7c0,5.1,2.2,9.8,5.9,13.2c3.6,3.4,8.6,5.5,14.1,5.5h239.9c5.5,0,10.5-2.1,14.1-5.5
	c3.6-3.4,5.9-8.1,5.9-13.2V66.6z"/>
<path class="st1" d="M20,18c-5.5,0-10.5,3.1-14.1,8.1C2.2,31.1,0,37.9,0,45.5v39.4h279.9V45.5c0-7.6-2.2-14.5-5.9-19.5
	c-3.6-5-8.6-8.1-14.1-8.1C152.6,18,83.6,18,20,18z"/>
<path class="st2" d="M38.7,44.2c4.5,0,8.2-3.7,8.2-8.2s-3.7-8.2-8.2-8.2c-4.5,0-8.2,3.7-8.2,8.2S34.2,44.2,38.7,44.2z"/>
<path class="st3" d="M44.5,4.9c0-2.7-2.6-4.9-5.8-4.9c-3.2,0-5.8,2.2-5.8,4.9v29.4c0,2.7,2.6,4.9,5.8,4.9c3.2,0,5.8-2.2,5.8-4.9V4.9
	z"/>
<ellipse transform="matrix(3.098451e-02 -0.9995 0.9995 3.098451e-02 197.7014 275.8674)" class="st2" cx="241.1" cy="36" rx="8.2" ry="8.2"/>
<path class="st3" d="M246.9,4.9c0-2.7-2.6-4.9-5.8-4.9c-3.2,0-5.8,2.2-5.8,4.9v29.4c0,2.7,2.6,4.9,5.8,4.9c3.2,0,5.8-2.2,5.8-4.9
	V4.9z"/>
<rect x="15.7" y="119.3" class="st4" width="53.9" height="53.9"/>
<rect x="82.8" y="119.3" class="st5" width="53.9" height="53.9"/>
<rect x="145.9" y="119.3" class="st4" width="53.9" height="53.9"/>
<rect x="210.4" y="119.3" class="st4" width="53.9" height="53.9"/>
<rect x="15.7" y="190.3" class="st4" width="53.9" height="53.9"/>
<rect x="82.8" y="190.3" class="st4" width="53.9" height="53.9"/>
<rect x="145.9" y="190.3" class="st4" width="53.9" height="53.9"/>
<rect x="210.4" y="190.3" class="st4" width="53.9" height="53.9"/>
<g>
	<path class="st6" d="M106.9,57.7c0,2.3-0.3,4.4-0.9,6.3c-0.6,1.9-1.4,3.5-2.6,4.9c-1.2,1.4-2.6,2.4-4.4,3.1s-3.8,1.1-6.2,1.1
		c-1.1,0-2.1-0.1-3.2-0.2s-2.1-0.3-3.3-0.6l0.5-5.6c0.1-0.5,0.3-0.9,0.6-1.2c0.3-0.3,0.8-0.5,1.4-0.5c0.3,0,0.7,0.1,1.2,0.2
		c0.5,0.1,1,0.2,1.7,0.2c0.9,0,1.7-0.1,2.4-0.4c0.7-0.3,1.3-0.7,1.7-1.3s0.8-1.4,1-2.3s0.3-2.2,0.3-3.6V31.4h9.6V57.7z"/>
	<path class="st6" d="M131.7,65.1c1.3,0,2.4-0.2,3.4-0.6c1-0.4,1.9-1,2.6-1.8c0.7-0.8,1.2-1.8,1.6-2.9c0.4-1.1,0.6-2.4,0.6-3.9V31.4
		h9.6v24.4c0,2.5-0.4,4.9-1.2,7c-0.8,2.1-2,3.9-3.5,5.5s-3.4,2.7-5.6,3.6c-2.2,0.8-4.7,1.3-7.4,1.3c-2.8,0-5.2-0.4-7.4-1.3
		s-4-2-5.6-3.6s-2.7-3.4-3.5-5.5c-0.8-2.1-1.2-4.4-1.2-7V31.4h9.6v24.4c0,1.5,0.2,2.8,0.6,3.9c0.4,1.1,0.9,2.1,1.6,2.9
		c0.7,0.8,1.6,1.4,2.6,1.8C129.2,64.8,130.4,65.1,131.7,65.1z"/>
	<path class="st6" d="M192.9,31.4v41.3h-5c-0.7,0-1.4-0.1-1.9-0.4c-0.5-0.2-1-0.6-1.5-1.2l-19.5-24.6c0.1,0.7,0.1,1.4,0.2,2.1
		c0,0.7,0,1.3,0,1.9v22.1h-8.4V31.4h5c0.4,0,0.8,0,1,0.1c0.3,0,0.5,0.1,0.8,0.2c0.2,0.1,0.4,0.3,0.7,0.4c0.2,0.2,0.4,0.4,0.7,0.8
		l19.6,24.8c-0.1-0.8-0.2-1.6-0.2-2.3c0-0.7-0.1-1.4-0.1-2.1V31.4H192.9z"/>
</g>
</svg>
